<svg id="Capa_1" data-name="Capa 1" xmlns="http://www.w3.org/2000/svg" viewBox="0 0 224.78 354.1"><defs><style>.cls-1{fill:#fff;}.cls-2{fill:#3632de;}.cls-3{fill:#00ff52;}</style></defs><path class="cls-1" d="M32.25,93.83S36.19,89,52.39,89c0,0,2.41-17.73,46.62,4.16,0,0-25.83-13.57-42.9-7,0,0,13.57.44,13.13,3.07,0,0-4.24,2.19-2.34,4.6,0,0,7.6,3.28,7.6,9,0,0-10.07-7-15.32-6.57,0,0-1.32,1.75-5.7.88C53.48,97.11,43,92.29,32.25,93.83Z"/><path class="cls-1" d="M59,99.52s17.51,7,22.76,21.88S87,137.16,87,137.16a41.85,41.85,0,0,0,2.19-26.26s3.29,5,3.72,9.41S102.08,87,70.12,86.16a5.88,5.88,0,0,1,3.06,3.51,16.46,16.46,0,0,1,.44,6.13S76.69,98,78,107.18C78,107.18,69.68,100.17,59,99.52Z"/><path class="cls-1" d="M77.34,82.44S86.1,47,106.67,29.91c0,0-8.1,11.6-8.53,19.92,0,0,7-11.82,17.51-15.32,0,0-10.94,11.82-12.91,21a55.2,55.2,0,0,1,12-9.19S108.2,52.46,107.33,59c0,0,7-4.37,10.94-5.69,0,0-7.88,5.69-8.31,9.63,0,0,1.31-3.26,8.31-3.38,0,0-7.44,9.07-7.88,14.33,0,0,5.26-7.88,11.38-9.2,0,0-5.69,7-7,12.26L99,90.54A64.54,64.54,0,0,0,77.34,82.44Z"/><path class="cls-1" d="M101.86,92.07s32-28.89,56.9-40.27S206.92,15.91,210,7.15c0,0-2.62,10.94-11.38,23.64,0,0,6.79-4.16,8.54-6.35s-.88,7.44-8.32,11.82A5.71,5.71,0,0,0,203.2,35S198.38,46.33,190.06,52c0,0,8.76-3.94,10.07-7,0,0-2.62,13.57-26.26,24.51,0,0,7.44-.88,11.82-3.5,0,0-15.07,13.14-32.27,26.49,0,0,9.94-3.73,14.32-7.67,0,0-28.46,37.65-48.59,47.72C119.15,132.57,117,113.74,101.86,92.07Z"/><path class="cls-1" d="M93.76,92.73a60.21,60.21,0,0,1,.54,40.4,13.47,13.47,0,0,1-8,6.88s13.57,9.19,14,18.38c0,0,11.82,17.51,12.26,24.08,0-.44,4.38-10.51,3.07-16.2,0,0,4.37,6.13,4.37,11.82s5.69-42-16.85-80.68l-9.51-4.89Z"/><path class="cls-1" d="M100.32,162.77V179.4s4.38-1.31,4.82-3.93,6.13,30.2,6.13,33.7c0,0-.88-21.45-1.75-24.51,0,0,2.68,5.25,5.94,1.31a10.8,10.8,0,0,0,1.94-5.69c0-3.06,1.31,1.32,4.37,3.94l-.43-4.81-.68,1.39-3.7-7.08s-1.31,7.88-4.38,11.81C112.58,185.53,106.45,168,100.32,162.77Z"/><path class="cls-1" d="M99.89,181.6l-1.75,31.08s23.63,4.37,32.39-.44L122.45,186a6.48,6.48,0,0,1-4.18-1.75s.44,4.82-5.69,5.25l.44,21.89h-2.63l-6.13-32S102.08,182,99.89,181.6Z"/><path class="cls-1" d="M99,293.21c.21-.73,13.3-44,10.4-77.36,1.2.17,2.69.32,4.47.4C113.84,221.63,113,267.68,99,293.21Z"/><path class="cls-1" d="M111.71,294.53s9.53-41.18,7.9-78.26c1.35-.05,2.79-.14,4.35-.28C123.9,221.93,123.09,264.85,111.71,294.53Z"/><path class="cls-1" d="M119.39,62.82s3.94-.44,5.69-.44c0,0-2.43,5-5.93,12l-1.75,3.51-7.2,4.58,5.9-5c.88-4.81,7-13.57,7-13.57-3.72-.65-9,3.72-9,3.72,1.1-2.4,5.91-9,5.91-9-2.2-.09-4.59-.22-4.59-.22.87-2.63,4.59-6.35,4.59-6.35-4.16.22-10.28,3.72-10.28,3.72,1.43-4.33,7.22-11.16,7.22-11.16a22,22,0,0,0-10.29,5.91c.66-5,11.6-17.73,11.6-17.73a34.63,34.63,0,0,0-18.06,11.65c.75-3.66,8.65-17.12,8.65-17.12-6.57,3.94-11.58,9.92-13.13,13.13l1.84-5.86c2.92-5.16,10-14.6,23.53-16.54,0,0-9.17,8.83-14.44,17.56.25-.26,8.71-7.94,18.4-7.41,0,0-7.88,6.12-10.31,14.15,0,0,3.74-3.65,8.12-4.09,0,0-4.48,5.61-5.44,11.67.29-.33,1.45-.89,5.64-1.45a51.79,51.79,0,0,0-4.34,8.22c.15-.2,3.26-.05,5.45-.05A16.07,16.07,0,0,0,119.39,62.82Z"/><path class="cls-1" d="M99.45,287.63s-19.7,16.1-9.63,20.48,11.82-12.26,11.82-12.26l.44-5.69L96.38,298Z"/><path class="cls-1" d="M111.71,290.54s-19.26,20.63-6.13,22.82,9.19-14,9.19-14l-.8-6.13-4,7Z"/><path class="cls-1" d="M203.22,34.14a2.19,2.19,0,0,0,2.18-.43c-1.75,3.94-5.25,10.5-5.25,10.5.88,0,2.19-1.31,2.19-1.31a30.49,30.49,0,0,1-17.07,21.89A27.46,27.46,0,0,0,191,63.47C187,69.6,167.54,83,167.54,83A22,22,0,0,0,173,81.42c-22.76,37.21-50.56,50.12-50.56,50.12l0,.32C156,123.74,193,83.32,193.56,82.67c-10.94,7-21,7-21,7C188.93,82.34,205.3,64,205.81,63.41c-8.18,6-18.91,8.66-19.24,8.74,22.4-12.06,27-25.4,27.13-25.81-5.25,7-10.54,7.54-10.54,7.54a60,60,0,0,0,18.42-33.8c-1.3,5.59-7.88,8.85-8.09,9,11.83-11.74-.64-29-.64-29s-1.75,16.2-7.45,22.76c0,0,4.38-2.19,5.26-4.81C210.66,18,209.78,29.33,203.22,34.14Z"/><path class="cls-2" d="M224.48,276.5,193.37,139.42l-40.05-12.1a120.87,120.87,0,0,1-28.51,9.83c1.1,4.89,1.86,9.44,2.36,13.46a138.17,138.17,0,0,1,1.11,20c0,.25,0,.5,0,.74l1.21,11.18,11.77,32.23-4.45,2.06a25.11,25.11,0,0,1-4.61,1.56c-.27,11.08-2,44.6-12.26,71.63l1.3,8.38c.6,2.26,2.33,10.51-2.78,16A13,13,0,0,1,115,317v36.38L213,299.92A22.52,22.52,0,0,0,224.48,276.5Z"/><path class="cls-2" d="M106.88,318.82a27.58,27.58,0,0,1-3.75-.27c-5.48-.77-8.09-3.18-9.33-5.14a15.41,15.41,0,0,1-4.57.69A18.16,18.16,0,0,1,83,312.93c-4-1.46-6.5-4.08-7-7.38-.72-4.36,2-9.2,8.59-15.23a84.92,84.92,0,0,1,8.43-6.75l.13-.09c4.11-13.56,11.34-41.32,9.66-64.57-4.86-.49-8.28-1-8.54-1.06l-5.4-.84,2.79-41.74.11,0v-16.7c-.36-4.92-9.51-11.7-13.9-14.23l-10.13-5.81,7.61-2.29c-.59-1.56-1.66-4.29-3.62-9L32.27,139.86l-32,135a25.51,25.51,0,0,0,12.94,26.31L109.8,354.1V318.63A22,22,0,0,1,106.88,318.82Z"/><polygon class="cls-3" points="83.73 174.44 66.79 219.21 52.81 232.02 79.92 254.49 78.38 286.7 22.2 231.7 83.73 174.44"/><polygon class="cls-3" points="137.61 290.6 138.12 254.58 164.66 231.87 154.66 216.8 139.38 165.06 196.89 228.91 137.61 290.6"/></svg>